<svg id="visual" viewBox="0 0 960 540" width="960" height="540" xmlns="http://www.w3.org/2000/svg" xmlns:xlink="http://www.w3.org/1999/xlink" version="1.1"><rect x="0" y="0" width="960" height="540" fill="#001220"></rect><defs><linearGradient id="grad1_0" x1="43.8%" y1="100%" x2="100%" y2="0%"><stop offset="14.444444444444446%" stop-color="#009473" stop-opacity="1"></stop><stop offset="85.55555555555554%" stop-color="#009473" stop-opacity="1"></stop></linearGradient></defs><defs><linearGradient id="grad1_1" x1="43.8%" y1="100%" x2="100%" y2="0%"><stop offset="14.444444444444446%" stop-color="#009473" stop-opacity="1"></stop><stop offset="85.55555555555554%" stop-color="#008172" stop-opacity="1"></stop></linearGradient></defs><defs><linearGradient id="grad1_2" x1="43.8%" y1="100%" x2="100%" y2="0%"><stop offset="14.444444444444446%" stop-color="#006d6d" stop-opacity="1"></stop><stop offset="85.55555555555554%" stop-color="#008172" stop-opacity="1"></stop></linearGradient></defs><defs><linearGradient id="grad1_3" x1="43.8%" y1="100%" x2="100%" y2="0%"><stop offset="14.444444444444446%" stop-color="#006d6d" stop-opacity="1"></stop><stop offset="85.55555555555554%" stop-color="#005964" stop-opacity="1"></stop></linearGradient></defs><defs><linearGradient id="grad1_4" x1="43.8%" y1="100%" x2="100%" y2="0%"><stop offset="14.444444444444446%" stop-color="#004657" stop-opacity="1"></stop><stop offset="85.55555555555554%" stop-color="#005964" stop-opacity="1"></stop></linearGradient></defs><defs><linearGradient id="grad1_5" x1="43.8%" y1="100%" x2="100%" y2="0%"><stop offset="14.444444444444446%" stop-color="#004657" stop-opacity="1"></stop><stop offset="85.55555555555554%" stop-color="#003446" stop-opacity="1"></stop></linearGradient></defs><defs><linearGradient id="grad1_6" x1="43.8%" y1="100%" x2="100%" y2="0%"><stop offset="14.444444444444446%" stop-color="#002334" stop-opacity="1"></stop><stop offset="85.55555555555554%" stop-color="#003446" stop-opacity="1"></stop></linearGradient></defs><defs><linearGradient id="grad1_7" x1="43.8%" y1="100%" x2="100%" y2="0%"><stop offset="14.444444444444446%" stop-color="#002334" stop-opacity="1"></stop><stop offset="85.55555555555554%" stop-color="#001220" stop-opacity="1"></stop></linearGradient></defs><defs><linearGradient id="grad2_0" x1="0%" y1="100%" x2="56.3%" y2="0%"><stop offset="14.444444444444446%" stop-color="#009473" stop-opacity="1"></stop><stop offset="85.55555555555554%" stop-color="#009473" stop-opacity="1"></stop></linearGradient></defs><defs><linearGradient id="grad2_1" x1="0%" y1="100%" x2="56.3%" y2="0%"><stop offset="14.444444444444446%" stop-color="#008172" stop-opacity="1"></stop><stop offset="85.55555555555554%" stop-color="#009473" stop-opacity="1"></stop></linearGradient></defs><defs><linearGradient id="grad2_2" x1="0%" y1="100%" x2="56.3%" y2="0%"><stop offset="14.444444444444446%" stop-color="#008172" stop-opacity="1"></stop><stop offset="85.55555555555554%" stop-color="#006d6d" stop-opacity="1"></stop></linearGradient></defs><defs><linearGradient id="grad2_3" x1="0%" y1="100%" x2="56.3%" y2="0%"><stop offset="14.444444444444446%" stop-color="#005964" stop-opacity="1"></stop><stop offset="85.55555555555554%" stop-color="#006d6d" stop-opacity="1"></stop></linearGradient></defs><defs><linearGradient id="grad2_4" x1="0%" y1="100%" x2="56.3%" y2="0%"><stop offset="14.444444444444446%" stop-color="#005964" stop-opacity="1"></stop><stop offset="85.55555555555554%" stop-color="#004657" stop-opacity="1"></stop></linearGradient></defs><defs><linearGradient id="grad2_5" x1="0%" y1="100%" x2="56.3%" y2="0%"><stop offset="14.444444444444446%" stop-color="#003446" stop-opacity="1"></stop><stop offset="85.55555555555554%" stop-color="#004657" stop-opacity="1"></stop></linearGradient></defs><defs><linearGradient id="grad2_6" x1="0%" y1="100%" x2="56.3%" y2="0%"><stop offset="14.444444444444446%" stop-color="#003446" stop-opacity="1"></stop><stop offset="85.55555555555554%" stop-color="#002334" stop-opacity="1"></stop></linearGradient></defs><defs><linearGradient id="grad2_7" x1="0%" y1="100%" x2="56.3%" y2="0%"><stop offset="14.444444444444446%" stop-color="#001220" stop-opacity="1"></stop><stop offset="85.55555555555554%" stop-color="#002334" stop-opacity="1"></stop></linearGradient></defs><g transform="translate(960, 540)"><path d="M-486 0C-452 -58.4 -417.9 -116.8 -380.6 -157.7C-343.3 -198.5 -302.8 -221.8 -274.4 -274.4C-245.9 -326.9 -229.7 -408.8 -186 -449C-142.3 -489.2 -71.1 -487.6 0 -486L0 0Z" fill="#011a2a"></path><path d="M-425.2 0C-395.5 -51.1 -365.7 -102.2 -333.1 -138C-300.4 -173.7 -264.9 -194.1 -240.1 -240.1C-215.2 -286.1 -201 -357.7 -162.7 -392.9C-124.5 -428 -62.2 -426.6 0 -425.2L0 0Z" fill="#002b3d"></path><path d="M-364.5 0C-339 -43.8 -313.5 -87.6 -285.5 -118.2C-257.5 -148.9 -227.1 -166.3 -205.8 -205.8C-184.5 -245.2 -172.3 -306.6 -139.5 -336.8C-106.7 -366.9 -53.4 -365.7 0 -364.5L0 0Z" fill="#003d4f"></path><path d="M-303.7 0C-282.5 -36.5 -261.2 -73 -237.9 -98.5C-214.6 -124.1 -189.2 -138.6 -171.5 -171.5C-153.7 -204.3 -143.6 -255.5 -116.2 -280.6C-88.9 -305.7 -44.5 -304.7 0 -303.7L0 0Z" fill="#00505e"></path><path d="M-243 0C-226 -29.2 -209 -58.4 -190.3 -78.8C-171.7 -99.3 -151.4 -110.9 -137.2 -137.2C-123 -163.5 -114.8 -204.4 -93 -224.5C-71.1 -244.6 -35.6 -243.8 0 -243L0 0Z" fill="#006369"></path><path d="M-182.2 0C-169.5 -21.9 -156.7 -43.8 -142.7 -59.1C-128.8 -74.4 -113.5 -83.2 -102.9 -102.9C-92.2 -122.6 -86.1 -153.3 -69.7 -168.4C-53.4 -183.4 -26.7 -182.8 0 -182.2L0 0Z" fill="#007770"></path><path d="M-121.5 0C-113 -14.6 -104.5 -29.2 -95.2 -39.4C-85.8 -49.6 -75.7 -55.4 -68.6 -68.6C-61.5 -81.7 -57.4 -102.2 -46.5 -112.3C-35.6 -122.3 -17.8 -121.9 0 -121.5L0 0Z" fill="#008a73"></path><path d="M-60.7 0C-56.5 -7.3 -52.2 -14.6 -47.6 -19.7C-42.9 -24.8 -37.8 -27.7 -34.3 -34.3C-30.7 -40.9 -28.7 -51.1 -23.2 -56.1C-17.8 -61.1 -8.9 -60.9 0 -60.7L0 0Z" fill="#009473"></path></g><g transform="translate(0, 0)"><path d="M486 0C434.5 45.1 383 90.3 366.8 151.9C350.5 213.6 369.5 291.7 343.7 343.7C317.8 395.6 247.3 421.3 182.5 440.7C117.8 460 58.9 473 0 486L0 0Z" fill="#011a2a"></path><path d="M425.3 0C380.2 39.5 335.2 79 320.9 132.9C306.7 186.9 323.3 255.2 300.7 300.7C278.1 346.1 216.4 368.7 159.7 385.6C103.1 402.5 51.5 413.9 0 425.3L0 0Z" fill="#002b3d"></path><path d="M364.5 0C325.9 33.9 287.3 67.7 275.1 113.9C262.9 160.2 277.1 218.8 257.7 257.7C238.4 296.7 185.5 316 136.9 330.5C88.4 345 44.2 354.8 0 364.5L0 0Z" fill="#003d4f"></path><path d="M303.8 0C271.6 28.2 239.4 56.4 229.2 95C219.1 133.5 230.9 182.3 214.8 214.8C198.7 247.2 154.5 263.3 114.1 275.4C73.6 287.5 36.8 295.6 0 303.8L0 0Z" fill="#00505e"></path><path d="M243 0C217.3 22.6 191.5 45.1 183.4 76C175.3 106.8 184.7 145.9 171.8 171.8C158.9 197.8 123.6 210.7 91.3 220.3C58.9 230 29.5 236.5 0 243L0 0Z" fill="#006369"></path><path d="M182.3 0C162.9 16.9 143.6 33.9 137.5 57C131.4 80.1 138.5 109.4 128.9 128.9C119.2 148.3 92.7 158 68.5 165.3C44.2 172.5 22.1 177.4 0 182.3L0 0Z" fill="#007770"></path><path d="M121.5 0C108.6 11.3 95.8 22.6 91.7 38C87.6 53.4 92.4 72.9 85.9 85.9C79.5 98.9 61.8 105.3 45.6 110.2C29.5 115 14.7 118.3 0 121.5L0 0Z" fill="#008a73"></path><path d="M60.8 0C54.3 5.6 47.9 11.3 45.8 19C43.8 26.7 46.2 36.5 43 43C39.7 49.4 30.9 52.7 22.8 55.1C14.7 57.5 7.4 59.1 0 60.8L0 0Z" fill="#009473"></path></g></svg>